# xmcd
#
# Track frame offsets: 
#        150
#        17102
#        35481
#        59110
#        74938
#        106433
#        123836
#        133440
#
# Disc length: 2147 seconds
#
# Revision: 0
# Processed by: cddbd v1.5.2PL0 Copyright (c) Steve Scherf et al.
# Submitted via: ExactAudioCopy v1.3
#
DISCID=82086108
DTITLE=Charles Musselwhite - Leave The Blues To Us
DYEAR=1975
DGENRE=Harmonica Blues, Electric Blues
TTITLE0=Stranger
TTITLE1=Business Man
TTITLE2=Skinny Woman
TTITLE3=Keys To The Highway
TTITLE4=Candy Kitchen
TTITLE5=Long As I Have You
TTITLE6=Just Take Your Time
TTITLE7=Early In The Mornin'
EXTD=
EXTT0=
EXTT1=
EXTT2=
EXTT3=
EXTT4=
EXTT5=
EXTT6=
EXTT7=
PLAYORDER=
